<?xml version="1.0" encoding="UTF-8" standalone="no"?>
<!DOCTYPE svg PUBLIC "-//W3C//DTD SVG 1.1//EN" "http://www.w3.org/Graphics/SVG/1.1/DTD/svg11.dtd">
<svg width="100%" height="100%" viewBox="0 0 865 966" version="1.1" xmlns="http://www.w3.org/2000/svg" xmlns:xlink="http://www.w3.org/1999/xlink" xml:space="preserve" xmlns:serif="http://www.serif.com/" style="fill-rule:evenodd;clip-rule:evenodd;stroke-linejoin:round;stroke-miterlimit:2;">
    <g transform="matrix(1,0,0,1,20,301)">
        <path d="M70.55,78.553C75.598,78.298 74.323,75.487 109.398,54.334C185.172,8.637 197.08,3.778 239.584,47.419C254.397,62.628 291.336,35.709 327.515,38.132C398.979,42.916 377.581,93.505 377.572,93.548C374.503,97.587 374.652,97.489 370.758,100.837C357.226,112.47 356.742,111.989 339.456,116.339C322.868,113.053 321.596,141.198 313.58,148.581C313.243,148.91 312.906,149.24 312.569,149.57C311.501,150.974 307.776,154.902 307.347,155.354C306.774,155.786 306.201,156.218 305.628,156.65C299.651,161.879 299.496,161.363 293.574,166.592C240.85,213.146 184.855,187.888 223.47,143.476C231.269,134.505 226.123,125.01 219.407,122.76C215.476,121.443 203.723,117.506 171.46,142.44C152.003,157.477 150.968,155.61 128.436,165.34C107.703,174.293 87.527,174.248 77.536,183.541C59.727,190.627 40.716,228.761 71.562,243.377C121.29,266.941 108.479,286.04 127.76,302.172C155.817,325.647 170.828,301.497 180.205,295.094C222.79,266.013 227.872,282.019 260.553,274.715C279.514,270.478 255.43,263.194 254.409,262.885C253.458,262.578 243.472,260.922 228.66,248.313C228.223,247.752 227.785,247.192 227.348,246.631C215.406,233.155 218.607,230.121 219.112,227.397C221.49,214.569 231.458,211.534 233.354,210.243C258.866,190.739 379.975,215.617 400.037,267.669C415.173,306.939 405.106,312.28 400.548,323.542C400.394,323.708 399.59,324.573 398.649,325.632C398.22,326.211 397.79,326.79 397.361,327.369C385.343,340.017 363.29,349.296 351.446,354.363C248.03,398.601 149.862,383.751 118.481,359.53C109.786,352.819 86.369,343.835 80.661,296.467C76.545,262.311 54.94,266.501 35.701,251.213C11.631,232.085 15.789,228.241 8.602,216.455C-14.009,179.375 43.691,101.874 68.313,81.256C68.672,80.958 69.031,80.661 69.389,80.363C69.776,79.76 70.163,79.156 70.55,78.553Z" style="fill:rgb(164,82,230);"/>
        <path d="M525.45,62.443C526.014,62.14 529.29,60.382 532.167,58.094C591.302,11.072 649.397,6.829 664.101,31.747C689.33,74.501 636.462,125.705 633.739,129.665C615.85,155.675 623.16,189.784 625.878,194.264C644.752,225.378 730.683,261.919 754.278,274.906C830.936,317.1 810.595,347.365 808.583,354.584C793.385,374.227 760.321,388.154 718.434,372.702C690.484,362.391 647.145,355.624 602.407,307.582C576.686,279.961 606.035,227.659 581.72,188.357C562.2,156.806 519.031,169.082 510.441,174.427C508.809,174.505 476.499,189.701 499.861,221.232C522.408,251.664 515.314,254.682 512.187,270.435C509.984,281.529 516.475,295.676 515.514,306.501C512.915,335.749 497.328,349.531 493.518,355.518C491.211,357.758 491.143,357.394 488.695,359.709C487.58,360.763 487.724,360.627 486.643,361.653C486.098,362.17 486.201,362.058 485.617,362.626C453.486,393.82 443.64,381.894 431.283,377.913C418.515,373.8 403.107,343.435 409.674,319.512C415.861,300.237 415.197,300.156 423.959,281.829C427.765,270.661 435.544,260.394 436.822,258.707C473.738,209.977 463.838,175.727 477.235,133.411C490.681,90.939 511.567,75.174 520.298,67.27C522.492,65.291 522.404,65.395 524.442,63.436C524.778,63.105 525.114,62.774 525.45,62.443Z" style="fill:rgb(164,82,230);"/>
        <path d="M660.608,5.047C663.759,10.783 666.372,10.155 669.659,9.24C671.022,10.231 672.385,11.221 673.747,12.211C672.331,15.411 673.655,16.613 676.788,15.264C685.702,28.12 684.174,34.305 685.327,40.521C681.427,45.695 684.313,45.996 685.38,48.49C683.743,61.459 684.02,61.321 679.809,73.637C673.486,70.747 676.822,78.789 677.014,79.252C651.198,120.44 640.073,115.971 637.814,150.52C632.826,155.977 637.251,159.164 637.34,159.494L637.358,162.507C637.018,163.549 632.831,165.048 637.83,170.467C638.796,176.059 638.664,175.988 640.998,181.151C640.929,181.665 638.262,186.485 643.737,184.289C661.795,203.975 663.716,203.005 676.707,212.179C674.905,216.116 677.293,216.755 681.2,214.973L687.695,219.19C685.947,223.083 688.279,223.755 692.192,221.986C696.688,224.706 701.185,227.426 705.681,230.146C704.712,232.47 709.526,237.069 715.688,235.108C720.332,237.146 724.976,239.185 729.62,241.224C728.208,244.376 730.411,244.163 733.691,243.072L738.609,245.253C738.802,245.708 737.61,246.045 737.803,246.5C738.151,247.317 743.253,249.796 743.751,250.038C747.771,251.992 748.239,249.991 748.251,249.986C759.636,256.051 759.511,255.925 770.691,262.132C770.567,262.426 767.985,268.547 774.228,263.997C777.662,266.118 802.782,281.639 813.898,295.163C816.929,298.85 846.454,334.77 808.583,354.584C810.595,347.365 830.936,317.1 754.278,274.906C730.683,261.919 644.752,225.378 625.878,194.264C623.16,189.784 615.85,155.675 633.739,129.665C636.462,125.705 689.33,74.501 664.101,31.747C649.397,6.829 591.302,11.072 532.167,58.094C529.29,60.382 526.014,62.14 525.45,62.443C536.379,51.422 543.599,42.644 580.757,20.99C581.219,21.181 588.886,24.348 586.317,18.131C632.397,-3.67 646.881,2.752 660.608,5.047Z" style="fill:rgb(4,0,0);"/>
        <path d="M395.222,58.556C392.937,61.815 393.446,62.127 395.728,65.513C392.547,82.804 392.076,83.404 377.572,93.548C377.581,93.505 398.979,42.916 327.515,38.132C291.336,35.709 254.397,62.628 239.584,47.419C197.08,3.778 185.172,8.637 109.398,54.334C74.323,75.487 75.598,78.298 70.55,78.553C84.081,64.139 102.858,52.497 124.477,39.463C199.326,-5.664 211.678,-11.706 253.792,33.215C269.675,50.157 306.299,17.647 351.552,25.253C390.902,31.866 392.641,47.653 395.222,58.556Z" style="fill:rgb(4,0,0);"/>
        <path d="M233.354,210.243C265.777,160.111 390.142,210.21 410.219,244.686C419.792,261.123 420.696,277.57 423.959,281.829C415.197,300.156 415.861,300.237 409.674,319.512C406.013,314.29 405.683,319.749 400.548,323.542C405.106,312.28 415.173,306.939 400.037,267.669C379.975,215.617 258.866,190.739 233.354,210.243Z" style="fill:rgb(3,0,0);"/>
        <path d="M77.536,183.541C76.428,185.089 57.257,214.59 85.627,229.254C90.063,231.547 103.518,234.77 122.203,256.742C129.67,265.523 136.377,294.253 163.475,298.705C185.347,302.298 176.691,277.733 233.55,262.813C241.821,265.816 241.876,264.147 250.486,264.309C252.666,263.88 252.554,263.985 254.409,262.885C255.43,263.194 279.514,270.478 260.553,274.715C227.872,282.019 222.79,266.013 180.205,295.094C170.828,301.497 155.817,325.647 127.76,302.172C108.479,286.04 121.29,266.941 71.562,243.377C40.716,228.761 59.727,190.627 77.536,183.541Z" style="fill:rgb(2,0,0);"/>
        <path d="M510.441,174.427C499.017,192.072 514.483,205.604 524.734,222.375C523.301,225.698 523.467,227.84 526.774,226.385C529.847,234.875 531.728,234.561 530.724,243.551C529.554,254.019 523.966,254.034 530.283,285.532C526.006,291.259 529.657,294.231 530.327,295.473C527.247,311.274 527.284,311.108 520.856,325.684C514.493,323.016 518.814,328.962 519.001,329.22C507.348,344.471 506.218,343.232 493.518,355.518C497.328,349.531 512.915,335.749 515.514,306.501C516.475,295.676 509.984,281.529 512.187,270.435C515.314,254.682 522.408,251.664 499.861,221.232C476.499,189.701 508.809,174.505 510.441,174.427Z" style="fill:rgb(5,0,0);"/>
        <path d="M339.456,116.339C335.371,120.029 336.217,132.133 314.455,148.45L313.58,148.581C321.596,141.198 322.868,113.053 339.456,116.339Z" style="fill:rgb(6,0,0);"/>
        <path d="M233.55,262.813C242.265,262.427 242.142,261.996 250.486,264.309C241.876,264.147 241.821,265.816 233.55,262.813Z" style="fill:rgb(130,2,12);"/>
        <path d="M705.681,230.146L715.688,235.108C709.526,237.069 704.712,232.47 705.681,230.146Z" style="fill:rgb(94,1,8);fill-opacity:0.98;"/>
        <path d="M738.609,245.253C741.823,246.831 745.037,248.408 748.251,249.986C748.239,249.991 747.771,251.992 743.751,250.038C743.253,249.796 738.151,247.317 737.803,246.5C737.61,246.045 738.802,245.708 738.609,245.253Z" style="fill:rgb(89,1,8);fill-opacity:0.98;"/>
        <path d="M660.608,5.047C663.625,6.445 666.642,7.842 669.659,9.24C666.372,10.155 663.759,10.783 660.608,5.047Z" style="fill:rgb(90,1,8);fill-opacity:0.98;"/>
        <path d="M530.283,285.532C530.298,288.846 530.312,292.16 530.327,295.473C529.657,294.231 526.006,291.259 530.283,285.532Z" style="fill:rgb(108,2,10);fill-opacity:0.89;"/>
        <path d="M637.814,150.52L637.34,159.494C637.251,159.164 632.826,155.977 637.814,150.52Z" style="fill:rgb(80,1,7);fill-opacity:0.84;"/>
        <path d="M685.327,40.521C685.345,43.177 685.362,45.833 685.38,48.49C684.313,45.996 681.427,45.695 685.327,40.521Z" style="fill:rgb(99,2,9);fill-opacity:0.87;"/>
        <path d="M586.317,18.131C588.886,24.348 581.219,21.181 580.757,20.99L586.317,18.131Z" style="fill:rgb(95,1,8);fill-opacity:0.93;"/>
        <path d="M679.809,73.637L677.014,79.252C676.822,78.789 673.486,70.747 679.809,73.637Z" style="fill:rgb(87,1,7);fill-opacity:0.93;"/>
        <path d="M637.358,162.507L637.83,170.467C632.831,165.048 637.018,163.549 637.358,162.507Z" style="fill:rgb(79,1,7);fill-opacity:0.84;"/>
        <path d="M395.222,58.556C395.391,60.875 395.56,63.194 395.728,65.513C393.446,62.127 392.937,61.815 395.222,58.556Z" style="fill:rgb(87,1,8);fill-opacity:0.85;"/>
        <path d="M687.695,219.19L692.192,221.986C688.279,223.755 685.947,223.083 687.695,219.19Z" style="fill:rgb(86,1,7);fill-opacity:0.92;"/>
        <path d="M676.707,212.179L681.2,214.973C677.293,216.755 674.905,216.116 676.707,212.179Z" style="fill:rgb(87,1,7);fill-opacity:0.92;"/>
        <path d="M673.747,12.211L676.788,15.264C673.655,16.613 672.331,15.411 673.747,12.211Z" style="fill:rgb(106,1,9);fill-opacity:0.96;"/>
        <path d="M729.62,241.224L733.691,243.072C730.411,244.163 728.208,244.376 729.62,241.224Z" style="fill:rgb(85,1,7);fill-opacity:0.89;"/>
        <path d="M770.691,262.132L774.228,263.997C767.985,268.547 770.567,262.426 770.691,262.132Z" style="fill:rgb(95,1,8);fill-opacity:0.92;"/>
        <path d="M524.734,222.375L526.774,226.385C523.467,227.84 523.301,225.698 524.734,222.375Z" style="fill:rgb(79,1,7);fill-opacity:0.91;"/>
        <path d="M520.856,325.684L519.001,329.22C518.814,328.962 514.493,323.016 520.856,325.684Z" style="fill:rgb(92,1,8);fill-opacity:0.92;"/>
        <path d="M640.998,181.151L643.737,184.289C638.262,186.485 640.929,181.665 640.998,181.151Z" style="fill:rgb(85,1,7);fill-opacity:0.92;"/>
        <path d="M524.442,63.436C522.404,65.395 522.492,65.291 520.298,67.27C522.123,64.939 522.037,65.036 524.442,63.436Z" style="fill:rgb(57,0,5);fill-opacity:0.74;"/>
        <path d="M488.695,359.709C488.011,360.357 487.327,361.005 486.643,361.653C487.724,360.627 487.58,360.763 488.695,359.709Z" style="fill:rgb(66,1,6);fill-opacity:0.75;"/>
        <path d="M70.55,78.553C70.163,79.156 69.776,79.76 69.389,80.363L69.596,79.604C69.914,79.254 70.232,78.903 70.55,78.553Z" style="fill:rgb(30,0,2);fill-opacity:0.78;"/>
        <path d="M313.58,148.581L314.455,148.45C313.826,148.823 313.197,149.196 312.569,149.57C312.906,149.24 313.243,148.91 313.58,148.581Z" style="fill:rgb(35,0,3);fill-opacity:0.75;"/>
        <path d="M69.596,79.604L69.389,80.363C69.031,80.661 68.672,80.958 68.313,81.256C68.741,80.705 69.169,80.155 69.596,79.604Z" style="fill:rgb(41,0,3);fill-opacity:0.76;"/>
        <path d="M398.649,325.632C398.22,326.211 397.79,326.79 397.361,327.369C397.79,326.79 398.22,326.211 398.649,325.632Z" style="fill:rgb(67,1,6);fill-opacity:0.71;"/>
        <path d="M307.347,155.354C306.774,155.786 306.201,156.218 305.628,156.65C306.201,156.218 306.774,155.786 307.347,155.354Z" style="fill:rgb(71,1,6);fill-opacity:0.74;"/>
        <path d="M227.348,246.631C227.785,247.192 228.223,247.752 228.66,248.313C228.223,247.752 227.785,247.192 227.348,246.631Z" style="fill:rgb(73,1,6);fill-opacity:0.74;"/>
    </g>
</svg>
